<mxfile host="app.diagrams.net" modified="2020-07-28T16:16:38.152Z" agent="5.0 (Windows NT 10.0; Win64; x64) AppleWebKit/537.36 (KHTML, like Gecko) Chrome/83.0.4103.116 Safari/537.36 OPR/69.0.3686.77" etag="2v6KQW0kDUf3Be_QidbS" version="13.5.4" type="github">
  <diagram id="C5RBs43oDa-KdzZeNtuy" name="Page-1">
    <mxGraphModel dx="1885" dy="1764" grid="1" gridSize="10" guides="1" tooltips="1" connect="1" arrows="1" fold="1" page="1" pageScale="1" pageWidth="1169" pageHeight="827" math="0" shadow="0">
      <root>
        <mxCell id="WIyWlLk6GJQsqaUBKTNV-0" />
        <mxCell id="WIyWlLk6GJQsqaUBKTNV-1" parent="WIyWlLk6GJQsqaUBKTNV-0" />
        <mxCell id="WIyWlLk6GJQsqaUBKTNV-2" value="" style="rounded=0;html=1;jettySize=auto;orthogonalLoop=1;fontSize=11;endArrow=block;endFill=0;endSize=8;strokeWidth=1;shadow=0;labelBackgroundColor=none;edgeStyle=orthogonalEdgeStyle;" parent="WIyWlLk6GJQsqaUBKTNV-1" source="WIyWlLk6GJQsqaUBKTNV-3" target="WIyWlLk6GJQsqaUBKTNV-6" edge="1">
          <mxGeometry relative="1" as="geometry" />
        </mxCell>
        <mxCell id="WIyWlLk6GJQsqaUBKTNV-3" value="&lt;p&gt;&lt;font style=&quot;font-size: 10px&quot;&gt;Вызов функциии get_next_line&lt;/font&gt;&lt;/p&gt;" style="rounded=1;whiteSpace=wrap;html=1;fontSize=12;glass=0;strokeWidth=1;shadow=0;fillColor=#FFCCE6;" parent="WIyWlLk6GJQsqaUBKTNV-1" vertex="1">
          <mxGeometry x="80" y="-810" width="120" height="40" as="geometry" />
        </mxCell>
        <mxCell id="JRrfS-yPoG9nIiZqx5cY-15" value="Да" style="edgeStyle=orthogonalEdgeStyle;rounded=0;orthogonalLoop=1;jettySize=auto;html=1;exitX=0.5;exitY=1;exitDx=0;exitDy=0;entryX=0.5;entryY=0;entryDx=0;entryDy=0;fillColor=#FFFFCC;" parent="WIyWlLk6GJQsqaUBKTNV-1" source="WIyWlLk6GJQsqaUBKTNV-6" target="JRrfS-yPoG9nIiZqx5cY-0" edge="1">
          <mxGeometry relative="1" as="geometry" />
        </mxCell>
        <mxCell id="WIyWlLk6GJQsqaUBKTNV-6" value="&lt;font style=&quot;font-size: 10px&quot;&gt;Входные парамерт валидны?&lt;/font&gt;" style="rhombus;whiteSpace=wrap;html=1;shadow=0;fontFamily=Helvetica;fontSize=12;align=center;strokeWidth=1;spacing=6;spacingTop=-4;fillColor=#FFFFCC;" parent="WIyWlLk6GJQsqaUBKTNV-1" vertex="1">
          <mxGeometry x="90" y="-730" width="100" height="80" as="geometry" />
        </mxCell>
        <mxCell id="WIyWlLk6GJQsqaUBKTNV-7" value="&lt;font style=&quot;font-size: 10px&quot;&gt;Return(-1)&lt;/font&gt;" style="rounded=1;whiteSpace=wrap;html=1;fontSize=12;glass=0;strokeWidth=1;shadow=0;fillColor=#FFFFCC;" parent="WIyWlLk6GJQsqaUBKTNV-1" vertex="1">
          <mxGeometry x="1020" y="-60" width="120" height="40" as="geometry" />
        </mxCell>
        <mxCell id="JRrfS-yPoG9nIiZqx5cY-9" value="" style="edgeStyle=orthogonalEdgeStyle;rounded=0;orthogonalLoop=1;jettySize=auto;html=1;fillColor=#FFFFCC;" parent="WIyWlLk6GJQsqaUBKTNV-1" source="JRrfS-yPoG9nIiZqx5cY-0" target="JRrfS-yPoG9nIiZqx5cY-8" edge="1">
          <mxGeometry relative="1" as="geometry" />
        </mxCell>
        <mxCell id="JRrfS-yPoG9nIiZqx5cY-0" value="&lt;font style=&quot;font-size: 10px&quot;&gt;Выделение памяти под &#39;\0&#39; и присвоедние к указателю line&lt;/font&gt;" style="whiteSpace=wrap;html=1;shadow=0;strokeWidth=1;spacing=6;spacingTop=-4;fillColor=#FFFFCC;" parent="WIyWlLk6GJQsqaUBKTNV-1" vertex="1">
          <mxGeometry x="80" y="-600" width="120" height="50" as="geometry" />
        </mxCell>
        <mxCell id="JRrfS-yPoG9nIiZqx5cY-19" value="Нет" style="edgeStyle=orthogonalEdgeStyle;rounded=0;orthogonalLoop=1;jettySize=auto;html=1;entryX=0.5;entryY=0;entryDx=0;entryDy=0;" parent="WIyWlLk6GJQsqaUBKTNV-1" source="JRrfS-yPoG9nIiZqx5cY-5" target="JRrfS-yPoG9nIiZqx5cY-18" edge="1">
          <mxGeometry relative="1" as="geometry" />
        </mxCell>
        <mxCell id="APc1HOjJ6p6l4onspKUv-2" value="Да" style="edgeStyle=orthogonalEdgeStyle;rounded=0;orthogonalLoop=1;jettySize=auto;html=1;entryX=1;entryY=0.5;entryDx=0;entryDy=0;exitX=0;exitY=0.5;exitDx=0;exitDy=0;" edge="1" parent="WIyWlLk6GJQsqaUBKTNV-1" source="JRrfS-yPoG9nIiZqx5cY-5" target="JRrfS-yPoG9nIiZqx5cY-12">
          <mxGeometry relative="1" as="geometry" />
        </mxCell>
        <mxCell id="JRrfS-yPoG9nIiZqx5cY-5" value="&lt;font style=&quot;font-size: 10px&quot;&gt;status == 0 ?&lt;/font&gt;" style="rhombus;whiteSpace=wrap;html=1;shadow=0;strokeWidth=1;spacing=6;spacingTop=-4;fillColor=#FFFFCC;" parent="WIyWlLk6GJQsqaUBKTNV-1" vertex="1">
          <mxGeometry x="630" y="-410" width="80" height="80" as="geometry" />
        </mxCell>
        <mxCell id="JRrfS-yPoG9nIiZqx5cY-10" style="edgeStyle=orthogonalEdgeStyle;rounded=0;orthogonalLoop=1;jettySize=auto;html=1;exitX=0.5;exitY=1;exitDx=0;exitDy=0;entryX=0.5;entryY=0;entryDx=0;entryDy=0;" parent="WIyWlLk6GJQsqaUBKTNV-1" source="JRrfS-yPoG9nIiZqx5cY-8" target="JRrfS-yPoG9nIiZqx5cY-5" edge="1">
          <mxGeometry relative="1" as="geometry">
            <Array as="points">
              <mxPoint x="140" y="-440" />
              <mxPoint x="670" y="-440" />
            </Array>
          </mxGeometry>
        </mxCell>
        <mxCell id="JRrfS-yPoG9nIiZqx5cY-8" value="&lt;font style=&quot;font-size: 10px&quot;&gt;Инициализация переменной &quot;status&quot; &lt;br&gt;значением 0&lt;/font&gt;" style="whiteSpace=wrap;html=1;shadow=0;strokeWidth=1;spacing=6;spacingTop=-4;fillColor=#FFFFCC;" parent="WIyWlLk6GJQsqaUBKTNV-1" vertex="1">
          <mxGeometry x="80" y="-505" width="120" height="50" as="geometry" />
        </mxCell>
        <mxCell id="APc1HOjJ6p6l4onspKUv-3" value="Да" style="edgeStyle=orthogonalEdgeStyle;rounded=0;orthogonalLoop=1;jettySize=auto;html=1;exitX=0;exitY=0.5;exitDx=0;exitDy=0;entryX=1;entryY=0.5;entryDx=0;entryDy=0;" edge="1" parent="WIyWlLk6GJQsqaUBKTNV-1" source="JRrfS-yPoG9nIiZqx5cY-12" target="JRrfS-yPoG9nIiZqx5cY-27">
          <mxGeometry relative="1" as="geometry" />
        </mxCell>
        <mxCell id="JRrfS-yPoG9nIiZqx5cY-12" value="&lt;font style=&quot;font-size: 10px&quot;&gt;Указатель buff == NULL ?&lt;/font&gt;" style="rhombus;whiteSpace=wrap;html=1;shadow=0;strokeWidth=1;spacing=6;spacingTop=-4;fillColor=#FFFFCC;" parent="WIyWlLk6GJQsqaUBKTNV-1" vertex="1">
          <mxGeometry x="510" y="-410" width="70" height="80" as="geometry" />
        </mxCell>
        <mxCell id="JRrfS-yPoG9nIiZqx5cY-21" value="Нет" style="edgeStyle=orthogonalEdgeStyle;rounded=0;orthogonalLoop=1;jettySize=auto;html=1;exitX=0.5;exitY=1;exitDx=0;exitDy=0;entryX=0.5;entryY=0;entryDx=0;entryDy=0;" parent="WIyWlLk6GJQsqaUBKTNV-1" source="JRrfS-yPoG9nIiZqx5cY-18" edge="1" target="JRrfS-yPoG9nIiZqx5cY-22">
          <mxGeometry relative="1" as="geometry">
            <mxPoint x="620" y="-120" as="targetPoint" />
          </mxGeometry>
        </mxCell>
        <mxCell id="JRrfS-yPoG9nIiZqx5cY-23" value="Да" style="edgeStyle=orthogonalEdgeStyle;rounded=0;orthogonalLoop=1;jettySize=auto;html=1;entryX=0.5;entryY=0;entryDx=0;entryDy=0;exitX=1;exitY=0.5;exitDx=0;exitDy=0;" parent="WIyWlLk6GJQsqaUBKTNV-1" source="JRrfS-yPoG9nIiZqx5cY-18" target="JRrfS-yPoG9nIiZqx5cY-25" edge="1">
          <mxGeometry relative="1" as="geometry">
            <mxPoint x="340" y="30" as="targetPoint" />
            <mxPoint x="820" y="-300" as="sourcePoint" />
          </mxGeometry>
        </mxCell>
        <mxCell id="JRrfS-yPoG9nIiZqx5cY-18" value="&lt;font style=&quot;font-size: 10px&quot;&gt;status == -2 ?&lt;br&gt;(Read венрул 0)&lt;br&gt;&lt;/font&gt;" style="rhombus;whiteSpace=wrap;html=1;shadow=0;strokeWidth=1;spacing=6;spacingTop=-4;fillColor=#FFFFCC;" parent="WIyWlLk6GJQsqaUBKTNV-1" vertex="1">
          <mxGeometry x="720" y="-300" width="80" height="80" as="geometry" />
        </mxCell>
        <mxCell id="JRrfS-yPoG9nIiZqx5cY-22" value="&lt;font style=&quot;font-size: 10px&quot;&gt;Return(status)&lt;br&gt;1 либо -1&lt;br&gt;&lt;/font&gt;" style="rounded=1;whiteSpace=wrap;html=1;fontSize=12;glass=0;strokeWidth=1;shadow=0;fillColor=#FFFFCC;" parent="WIyWlLk6GJQsqaUBKTNV-1" vertex="1">
          <mxGeometry x="700" y="-60" width="120" height="40" as="geometry" />
        </mxCell>
        <mxCell id="JRrfS-yPoG9nIiZqx5cY-24" value="&lt;font style=&quot;font-size: 10px&quot;&gt;Return(0)&lt;/font&gt;" style="rounded=1;whiteSpace=wrap;html=1;fontSize=12;glass=0;strokeWidth=1;shadow=0;fillColor=#FFFFCC;" parent="WIyWlLk6GJQsqaUBKTNV-1" vertex="1">
          <mxGeometry x="860" y="-60" width="120" height="40" as="geometry" />
        </mxCell>
        <mxCell id="JRrfS-yPoG9nIiZqx5cY-26" style="edgeStyle=orthogonalEdgeStyle;rounded=0;orthogonalLoop=1;jettySize=auto;html=1;exitX=0.5;exitY=1;exitDx=0;exitDy=0;" parent="WIyWlLk6GJQsqaUBKTNV-1" source="JRrfS-yPoG9nIiZqx5cY-25" target="JRrfS-yPoG9nIiZqx5cY-24" edge="1">
          <mxGeometry relative="1" as="geometry" />
        </mxCell>
        <mxCell id="JRrfS-yPoG9nIiZqx5cY-25" value="&lt;span style=&quot;font-size: 10px&quot;&gt;Освобождение памяти по указателю&amp;nbsp; buff, присвоение buff - Null&lt;/span&gt;" style="rounded=1;whiteSpace=wrap;html=1;fontSize=12;glass=0;strokeWidth=1;shadow=0;fillColor=#FFFFCC;" parent="WIyWlLk6GJQsqaUBKTNV-1" vertex="1">
          <mxGeometry x="860" y="-160" width="120" height="40" as="geometry" />
        </mxCell>
        <mxCell id="APc1HOjJ6p6l4onspKUv-5" style="edgeStyle=orthogonalEdgeStyle;rounded=0;orthogonalLoop=1;jettySize=auto;html=1;exitX=0;exitY=0.5;exitDx=0;exitDy=0;fillColor=#99CCFF;" edge="1" parent="WIyWlLk6GJQsqaUBKTNV-1" source="JRrfS-yPoG9nIiZqx5cY-27" target="JRrfS-yPoG9nIiZqx5cY-28">
          <mxGeometry relative="1" as="geometry" />
        </mxCell>
        <mxCell id="JRrfS-yPoG9nIiZqx5cY-27" value="&lt;span style=&quot;font-size: 10px&quot;&gt;Присвоение &quot;start&quot;&amp;nbsp;&lt;/span&gt;&lt;br style=&quot;font-size: 10px&quot;&gt;&lt;span style=&quot;font-size: 10px&quot;&gt;значения 0&lt;/span&gt;" style="rounded=1;whiteSpace=wrap;html=1;fontSize=12;glass=0;strokeWidth=1;shadow=0;fillColor=#99CCFF;" parent="WIyWlLk6GJQsqaUBKTNV-1" vertex="1">
          <mxGeometry x="340" y="-390" width="120" height="40" as="geometry" />
        </mxCell>
        <mxCell id="JRrfS-yPoG9nIiZqx5cY-32" value="" style="edgeStyle=orthogonalEdgeStyle;rounded=0;orthogonalLoop=1;jettySize=auto;html=1;fillColor=#99CCFF;" parent="WIyWlLk6GJQsqaUBKTNV-1" source="JRrfS-yPoG9nIiZqx5cY-28" target="JRrfS-yPoG9nIiZqx5cY-31" edge="1">
          <mxGeometry relative="1" as="geometry" />
        </mxCell>
        <mxCell id="JRrfS-yPoG9nIiZqx5cY-28" value="&lt;span style=&quot;font-size: 10px&quot;&gt;Выделение памяти для чтения по указателю buff&lt;/span&gt;" style="rounded=1;whiteSpace=wrap;html=1;fontSize=12;glass=0;strokeWidth=1;shadow=0;fillColor=#99CCFF;" parent="WIyWlLk6GJQsqaUBKTNV-1" vertex="1">
          <mxGeometry x="192.5" y="-390" width="120" height="40" as="geometry" />
        </mxCell>
        <mxCell id="JRrfS-yPoG9nIiZqx5cY-34" value="Да" style="edgeStyle=orthogonalEdgeStyle;rounded=0;orthogonalLoop=1;jettySize=auto;html=1;exitX=1;exitY=0.5;exitDx=0;exitDy=0;entryX=0;entryY=0.5;entryDx=0;entryDy=0;fillColor=#99CCFF;" parent="WIyWlLk6GJQsqaUBKTNV-1" source="JRrfS-yPoG9nIiZqx5cY-31" target="JRrfS-yPoG9nIiZqx5cY-35" edge="1">
          <mxGeometry relative="1" as="geometry">
            <mxPoint x="335" y="50" as="targetPoint" />
          </mxGeometry>
        </mxCell>
        <mxCell id="JRrfS-yPoG9nIiZqx5cY-38" value="Нет" style="edgeStyle=orthogonalEdgeStyle;rounded=0;orthogonalLoop=1;jettySize=auto;html=1;exitX=0;exitY=0.5;exitDx=0;exitDy=0;entryX=1;entryY=0.5;entryDx=0;entryDy=0;fillColor=#99CCFF;" parent="WIyWlLk6GJQsqaUBKTNV-1" source="JRrfS-yPoG9nIiZqx5cY-31" target="JRrfS-yPoG9nIiZqx5cY-39" edge="1">
          <mxGeometry relative="1" as="geometry">
            <mxPoint x="160" y="230" as="targetPoint" />
            <Array as="points" />
          </mxGeometry>
        </mxCell>
        <mxCell id="JRrfS-yPoG9nIiZqx5cY-31" value="&lt;font style=&quot;font-size: 10px&quot;&gt;Buff == NULL?&lt;/font&gt;" style="rhombus;whiteSpace=wrap;html=1;rounded=1;shadow=0;strokeWidth=1;glass=0;fillColor=#99CCFF;" parent="WIyWlLk6GJQsqaUBKTNV-1" vertex="1">
          <mxGeometry x="212.5" y="-310" width="80" height="80" as="geometry" />
        </mxCell>
        <mxCell id="APc1HOjJ6p6l4onspKUv-11" style="edgeStyle=orthogonalEdgeStyle;rounded=0;orthogonalLoop=1;jettySize=auto;html=1;exitX=1;exitY=0.5;exitDx=0;exitDy=0;" edge="1" parent="WIyWlLk6GJQsqaUBKTNV-1" source="JRrfS-yPoG9nIiZqx5cY-35" target="JRrfS-yPoG9nIiZqx5cY-5">
          <mxGeometry relative="1" as="geometry" />
        </mxCell>
        <mxCell id="JRrfS-yPoG9nIiZqx5cY-35" value="&lt;font style=&quot;font-size: 10px&quot;&gt;Return(-1)&lt;br&gt;(память не выделилась)&lt;br&gt;&lt;/font&gt;" style="rounded=1;whiteSpace=wrap;html=1;fontSize=12;glass=0;strokeWidth=1;shadow=0;fillColor=#99CCFF;" parent="WIyWlLk6GJQsqaUBKTNV-1" vertex="1">
          <mxGeometry x="365" y="-290" width="70" height="40" as="geometry" />
        </mxCell>
        <mxCell id="JRrfS-yPoG9nIiZqx5cY-41" style="edgeStyle=orthogonalEdgeStyle;rounded=0;orthogonalLoop=1;jettySize=auto;html=1;exitX=0.5;exitY=1;exitDx=0;exitDy=0;entryX=0.5;entryY=0;entryDx=0;entryDy=0;fillColor=#99CCFF;" parent="WIyWlLk6GJQsqaUBKTNV-1" source="JRrfS-yPoG9nIiZqx5cY-39" target="JRrfS-yPoG9nIiZqx5cY-40" edge="1">
          <mxGeometry relative="1" as="geometry" />
        </mxCell>
        <mxCell id="JRrfS-yPoG9nIiZqx5cY-39" value="&lt;span style=&quot;font-size: 10px&quot;&gt;Чтение из файла в буффер&amp;nbsp;&lt;/span&gt;" style="rounded=1;whiteSpace=wrap;html=1;fontSize=12;glass=0;strokeWidth=1;shadow=0;fillColor=#99CCFF;" parent="WIyWlLk6GJQsqaUBKTNV-1" vertex="1">
          <mxGeometry x="60" y="-290" width="120" height="40" as="geometry" />
        </mxCell>
        <mxCell id="JRrfS-yPoG9nIiZqx5cY-42" value="Нет" style="edgeStyle=orthogonalEdgeStyle;rounded=0;orthogonalLoop=1;jettySize=auto;html=1;exitX=0.5;exitY=1;exitDx=0;exitDy=0;entryX=0.5;entryY=0;entryDx=0;entryDy=0;fillColor=#99CCFF;" parent="WIyWlLk6GJQsqaUBKTNV-1" source="JRrfS-yPoG9nIiZqx5cY-40" target="JRrfS-yPoG9nIiZqx5cY-44" edge="1">
          <mxGeometry relative="1" as="geometry">
            <mxPoint x="230" y="-170" as="targetPoint" />
          </mxGeometry>
        </mxCell>
        <mxCell id="JRrfS-yPoG9nIiZqx5cY-55" value="Да" style="edgeStyle=orthogonalEdgeStyle;rounded=0;orthogonalLoop=1;jettySize=auto;html=1;exitX=1;exitY=0.5;exitDx=0;exitDy=0;entryX=0;entryY=0.5;entryDx=0;entryDy=0;fillColor=#99CCFF;" parent="WIyWlLk6GJQsqaUBKTNV-1" source="JRrfS-yPoG9nIiZqx5cY-40" target="JRrfS-yPoG9nIiZqx5cY-56" edge="1">
          <mxGeometry relative="1" as="geometry">
            <mxPoint x="130" y="-40" as="targetPoint" />
          </mxGeometry>
        </mxCell>
        <mxCell id="JRrfS-yPoG9nIiZqx5cY-40" value="&lt;font style=&quot;font-size: 10px&quot;&gt;status &amp;gt; 0 ?&lt;/font&gt;" style="rhombus;whiteSpace=wrap;html=1;rounded=1;shadow=0;strokeWidth=1;glass=0;fillColor=#99CCFF;" parent="WIyWlLk6GJQsqaUBKTNV-1" vertex="1">
          <mxGeometry x="80" y="-220" width="80" height="80" as="geometry" />
        </mxCell>
        <mxCell id="APc1HOjJ6p6l4onspKUv-8" style="edgeStyle=orthogonalEdgeStyle;rounded=0;orthogonalLoop=1;jettySize=auto;html=1;entryX=0.5;entryY=1;entryDx=0;entryDy=0;" edge="1" parent="WIyWlLk6GJQsqaUBKTNV-1" source="JRrfS-yPoG9nIiZqx5cY-43" target="JRrfS-yPoG9nIiZqx5cY-5">
          <mxGeometry relative="1" as="geometry" />
        </mxCell>
        <mxCell id="JRrfS-yPoG9nIiZqx5cY-43" value="&lt;font style=&quot;font-size: 10px&quot;&gt;Return(-1)&lt;br&gt;(чтение не удалось)&lt;br&gt;&lt;/font&gt;" style="rounded=1;whiteSpace=wrap;html=1;fontSize=12;glass=0;strokeWidth=1;shadow=0;fillColor=#99CCFF;" parent="WIyWlLk6GJQsqaUBKTNV-1" vertex="1">
          <mxGeometry x="365" y="-50" width="70" height="40" as="geometry" />
        </mxCell>
        <mxCell id="JRrfS-yPoG9nIiZqx5cY-46" value="Да" style="edgeStyle=orthogonalEdgeStyle;rounded=0;orthogonalLoop=1;jettySize=auto;html=1;exitX=1;exitY=0.5;exitDx=0;exitDy=0;entryX=0;entryY=0.5;entryDx=0;entryDy=0;fillColor=#99CCFF;" parent="WIyWlLk6GJQsqaUBKTNV-1" source="JRrfS-yPoG9nIiZqx5cY-44" target="JRrfS-yPoG9nIiZqx5cY-47" edge="1">
          <mxGeometry relative="1" as="geometry">
            <mxPoint x="280" y="110" as="targetPoint" />
            <Array as="points">
              <mxPoint x="360" y="-80" />
            </Array>
          </mxGeometry>
        </mxCell>
        <mxCell id="JRrfS-yPoG9nIiZqx5cY-59" value="Нет" style="edgeStyle=orthogonalEdgeStyle;rounded=0;orthogonalLoop=1;jettySize=auto;html=1;exitX=0.5;exitY=1;exitDx=0;exitDy=0;entryX=0;entryY=0.5;entryDx=0;entryDy=0;fillColor=#99CCFF;" parent="WIyWlLk6GJQsqaUBKTNV-1" source="JRrfS-yPoG9nIiZqx5cY-44" target="JRrfS-yPoG9nIiZqx5cY-43" edge="1">
          <mxGeometry relative="1" as="geometry">
            <Array as="points">
              <mxPoint x="120" y="-30" />
            </Array>
          </mxGeometry>
        </mxCell>
        <mxCell id="JRrfS-yPoG9nIiZqx5cY-44" value="&lt;font style=&quot;font-size: 10px&quot;&gt;status == 0&lt;/font&gt;" style="rhombus;whiteSpace=wrap;html=1;rounded=1;shadow=0;strokeWidth=1;glass=0;fillColor=#99CCFF;" parent="WIyWlLk6GJQsqaUBKTNV-1" vertex="1">
          <mxGeometry x="80" y="-120" width="80" height="80" as="geometry" />
        </mxCell>
        <mxCell id="APc1HOjJ6p6l4onspKUv-9" style="edgeStyle=orthogonalEdgeStyle;rounded=0;orthogonalLoop=1;jettySize=auto;html=1;exitX=1;exitY=0.5;exitDx=0;exitDy=0;" edge="1" parent="WIyWlLk6GJQsqaUBKTNV-1" source="JRrfS-yPoG9nIiZqx5cY-47" target="JRrfS-yPoG9nIiZqx5cY-5">
          <mxGeometry relative="1" as="geometry" />
        </mxCell>
        <mxCell id="JRrfS-yPoG9nIiZqx5cY-47" value="&lt;font style=&quot;font-size: 10px&quot;&gt;Return(-2)&lt;br&gt;(конец файла)&lt;br&gt;&lt;/font&gt;" style="rounded=1;whiteSpace=wrap;html=1;fontSize=12;glass=0;strokeWidth=1;shadow=0;fillColor=#99CCFF;" parent="WIyWlLk6GJQsqaUBKTNV-1" vertex="1">
          <mxGeometry x="365" y="-100" width="70" height="40" as="geometry" />
        </mxCell>
        <mxCell id="APc1HOjJ6p6l4onspKUv-7" style="edgeStyle=orthogonalEdgeStyle;rounded=0;orthogonalLoop=1;jettySize=auto;html=1;entryX=0;entryY=0.5;entryDx=0;entryDy=0;fillColor=#99CCFF;" edge="1" parent="WIyWlLk6GJQsqaUBKTNV-1" source="JRrfS-yPoG9nIiZqx5cY-56" target="JRrfS-yPoG9nIiZqx5cY-57">
          <mxGeometry relative="1" as="geometry" />
        </mxCell>
        <mxCell id="JRrfS-yPoG9nIiZqx5cY-56" value="&lt;span style=&quot;font-size: 10px&quot;&gt;Запись &lt;br&gt;buff[status] = &#39;\0&#39;&amp;nbsp;&lt;/span&gt;" style="rounded=1;whiteSpace=wrap;html=1;fontSize=12;glass=0;strokeWidth=1;shadow=0;fillColor=#99CCFF;" parent="WIyWlLk6GJQsqaUBKTNV-1" vertex="1">
          <mxGeometry x="212.5" y="-200" width="85" height="40" as="geometry" />
        </mxCell>
        <mxCell id="APc1HOjJ6p6l4onspKUv-10" style="edgeStyle=orthogonalEdgeStyle;rounded=0;orthogonalLoop=1;jettySize=auto;html=1;exitX=1;exitY=0.5;exitDx=0;exitDy=0;entryX=0.5;entryY=1;entryDx=0;entryDy=0;" edge="1" parent="WIyWlLk6GJQsqaUBKTNV-1" source="JRrfS-yPoG9nIiZqx5cY-57" target="JRrfS-yPoG9nIiZqx5cY-5">
          <mxGeometry relative="1" as="geometry" />
        </mxCell>
        <mxCell id="JRrfS-yPoG9nIiZqx5cY-57" value="&lt;font style=&quot;font-size: 10px&quot;&gt;Return(&amp;gt;0)&lt;br&gt;(символов прочитано)&lt;br&gt;&lt;/font&gt;" style="rounded=1;whiteSpace=wrap;html=1;fontSize=12;glass=0;strokeWidth=1;shadow=0;fillColor=#99CCFF;" parent="WIyWlLk6GJQsqaUBKTNV-1" vertex="1">
          <mxGeometry x="360" y="-220" width="80" height="80" as="geometry" />
        </mxCell>
        <mxCell id="APc1HOjJ6p6l4onspKUv-14" style="edgeStyle=orthogonalEdgeStyle;rounded=0;orthogonalLoop=1;jettySize=auto;html=1;exitX=0.5;exitY=0;exitDx=0;exitDy=0;entryX=0.5;entryY=1;entryDx=0;entryDy=0;fillColor=#D5E8D4;" edge="1" parent="WIyWlLk6GJQsqaUBKTNV-1" source="JRrfS-yPoG9nIiZqx5cY-66" target="JRrfS-yPoG9nIiZqx5cY-68">
          <mxGeometry relative="1" as="geometry" />
        </mxCell>
        <mxCell id="JRrfS-yPoG9nIiZqx5cY-66" value="&lt;span style=&quot;font-size: 10px&quot;&gt;Поиск симлова &#39;\n&#39; в buff&lt;/span&gt;" style="rounded=1;whiteSpace=wrap;html=1;fontSize=12;glass=0;strokeWidth=1;shadow=0;fillColor=#D5E8D4;" parent="WIyWlLk6GJQsqaUBKTNV-1" vertex="1">
          <mxGeometry x="485" y="-498" width="120" height="20" as="geometry" />
        </mxCell>
        <mxCell id="JRrfS-yPoG9nIiZqx5cY-74" style="edgeStyle=orthogonalEdgeStyle;rounded=0;orthogonalLoop=1;jettySize=auto;html=1;entryX=0.5;entryY=1;entryDx=0;entryDy=0;exitX=0.5;exitY=0;exitDx=0;exitDy=0;" parent="WIyWlLk6GJQsqaUBKTNV-1" source="JRrfS-yPoG9nIiZqx5cY-12" target="JRrfS-yPoG9nIiZqx5cY-66" edge="1">
          <mxGeometry relative="1" as="geometry">
            <mxPoint x="630" y="-460" as="sourcePoint" />
          </mxGeometry>
        </mxCell>
        <mxCell id="JRrfS-yPoG9nIiZqx5cY-75" value="Нет" style="edgeLabel;html=1;align=center;verticalAlign=middle;resizable=0;points=[];fillColor=#D5E8D4;" parent="JRrfS-yPoG9nIiZqx5cY-74" vertex="1" connectable="0">
          <mxGeometry x="-0.4444" y="-3" relative="1" as="geometry">
            <mxPoint as="offset" />
          </mxGeometry>
        </mxCell>
        <mxCell id="APc1HOjJ6p6l4onspKUv-26" value="Да" style="edgeStyle=orthogonalEdgeStyle;rounded=0;orthogonalLoop=1;jettySize=auto;html=1;exitX=0.5;exitY=0;exitDx=0;exitDy=0;fillColor=#D5E8D4;" edge="1" parent="WIyWlLk6GJQsqaUBKTNV-1" source="JRrfS-yPoG9nIiZqx5cY-68" target="JRrfS-yPoG9nIiZqx5cY-71">
          <mxGeometry relative="1" as="geometry" />
        </mxCell>
        <mxCell id="APc1HOjJ6p6l4onspKUv-27" value="Нет" style="edgeStyle=orthogonalEdgeStyle;rounded=0;orthogonalLoop=1;jettySize=auto;html=1;exitX=0;exitY=0.5;exitDx=0;exitDy=0;entryX=0;entryY=0.5;entryDx=0;entryDy=0;fillColor=#D5E8D4;" edge="1" parent="WIyWlLk6GJQsqaUBKTNV-1" source="JRrfS-yPoG9nIiZqx5cY-68" target="JRrfS-yPoG9nIiZqx5cY-72">
          <mxGeometry relative="1" as="geometry" />
        </mxCell>
        <mxCell id="JRrfS-yPoG9nIiZqx5cY-68" value="&lt;font style=&quot;font-size: 10px&quot;&gt;Нашли &#39;\n&#39; - ?&lt;br&gt;&lt;/font&gt;" style="rhombus;whiteSpace=wrap;html=1;rounded=1;shadow=0;strokeWidth=1;glass=0;fillColor=#D5E8D4;" parent="WIyWlLk6GJQsqaUBKTNV-1" vertex="1">
          <mxGeometry x="505" y="-600" width="80" height="80" as="geometry" />
        </mxCell>
        <mxCell id="JRrfS-yPoG9nIiZqx5cY-71" value="&lt;span style=&quot;font-size: 10px&quot;&gt;Заменили &#39;\n&#39; на &#39;\0&#39;&lt;/span&gt;" style="rounded=1;whiteSpace=wrap;html=1;fontSize=12;glass=0;strokeWidth=1;shadow=0;fillColor=#D5E8D4;" parent="WIyWlLk6GJQsqaUBKTNV-1" vertex="1">
          <mxGeometry x="485" y="-663" width="120" height="20" as="geometry" />
        </mxCell>
        <mxCell id="APc1HOjJ6p6l4onspKUv-28" style="edgeStyle=orthogonalEdgeStyle;rounded=0;orthogonalLoop=1;jettySize=auto;html=1;exitX=1;exitY=0.5;exitDx=0;exitDy=0;entryX=0;entryY=0.5;entryDx=0;entryDy=0;fillColor=#D5E8D4;" edge="1" parent="WIyWlLk6GJQsqaUBKTNV-1" source="JRrfS-yPoG9nIiZqx5cY-72" target="JRrfS-yPoG9nIiZqx5cY-77">
          <mxGeometry relative="1" as="geometry" />
        </mxCell>
        <mxCell id="JRrfS-yPoG9nIiZqx5cY-72" value="&lt;span style=&quot;font-size: 10px&quot;&gt;&amp;nbsp;Объединили line и buff&lt;/span&gt;" style="rounded=1;whiteSpace=wrap;html=1;fontSize=12;glass=0;strokeWidth=1;shadow=0;fillColor=#D5E8D4;" parent="WIyWlLk6GJQsqaUBKTNV-1" vertex="1">
          <mxGeometry x="485" y="-723" width="120" height="20" as="geometry" />
        </mxCell>
        <mxCell id="JRrfS-yPoG9nIiZqx5cY-80" value="Да" style="edgeStyle=orthogonalEdgeStyle;rounded=0;orthogonalLoop=1;jettySize=auto;html=1;entryX=0;entryY=0.5;entryDx=0;entryDy=0;exitX=1;exitY=0.5;exitDx=0;exitDy=0;fillColor=#D5E8D4;" parent="WIyWlLk6GJQsqaUBKTNV-1" source="JRrfS-yPoG9nIiZqx5cY-87" target="JRrfS-yPoG9nIiZqx5cY-81" edge="1">
          <mxGeometry relative="1" as="geometry">
            <mxPoint x="860" y="-660" as="targetPoint" />
            <mxPoint x="915" y="-590" as="sourcePoint" />
            <Array as="points" />
          </mxGeometry>
        </mxCell>
        <mxCell id="APc1HOjJ6p6l4onspKUv-18" value="Да" style="edgeStyle=orthogonalEdgeStyle;rounded=0;orthogonalLoop=1;jettySize=auto;html=1;exitX=1;exitY=0.5;exitDx=0;exitDy=0;fillColor=#D5E8D4;" edge="1" parent="WIyWlLk6GJQsqaUBKTNV-1" source="JRrfS-yPoG9nIiZqx5cY-77" target="JRrfS-yPoG9nIiZqx5cY-84">
          <mxGeometry relative="1" as="geometry" />
        </mxCell>
        <mxCell id="APc1HOjJ6p6l4onspKUv-29" value="Нет" style="edgeStyle=orthogonalEdgeStyle;rounded=0;orthogonalLoop=1;jettySize=auto;html=1;exitX=0.5;exitY=1;exitDx=0;exitDy=0;fillColor=#D5E8D4;" edge="1" parent="WIyWlLk6GJQsqaUBKTNV-1" source="JRrfS-yPoG9nIiZqx5cY-77" target="JRrfS-yPoG9nIiZqx5cY-87">
          <mxGeometry relative="1" as="geometry" />
        </mxCell>
        <mxCell id="JRrfS-yPoG9nIiZqx5cY-77" value="&lt;font style=&quot;font-size: 10px&quot;&gt;line == NULL?&lt;/font&gt;" style="rhombus;whiteSpace=wrap;html=1;rounded=1;shadow=0;strokeWidth=1;glass=0;fillColor=#D5E8D4;" parent="WIyWlLk6GJQsqaUBKTNV-1" vertex="1">
          <mxGeometry x="660" y="-753" width="80" height="80" as="geometry" />
        </mxCell>
        <mxCell id="JRrfS-yPoG9nIiZqx5cY-96" style="edgeStyle=orthogonalEdgeStyle;rounded=0;orthogonalLoop=1;jettySize=auto;html=1;exitX=1;exitY=0.5;exitDx=0;exitDy=0;entryX=0;entryY=0.5;entryDx=0;entryDy=0;fillColor=#D5E8D4;" parent="WIyWlLk6GJQsqaUBKTNV-1" source="JRrfS-yPoG9nIiZqx5cY-81" target="JRrfS-yPoG9nIiZqx5cY-95" edge="1">
          <mxGeometry relative="1" as="geometry" />
        </mxCell>
        <mxCell id="JRrfS-yPoG9nIiZqx5cY-81" value="&lt;span style=&quot;font-size: 10px&quot;&gt;Сдвинули start на индекс \n + 1&lt;/span&gt;" style="rounded=1;whiteSpace=wrap;html=1;fontSize=12;glass=0;strokeWidth=1;shadow=0;fillColor=#D5E8D4;" parent="WIyWlLk6GJQsqaUBKTNV-1" vertex="1">
          <mxGeometry x="760" y="-623" width="120" height="40" as="geometry" />
        </mxCell>
        <mxCell id="APc1HOjJ6p6l4onspKUv-30" style="edgeStyle=orthogonalEdgeStyle;rounded=0;orthogonalLoop=1;jettySize=auto;html=1;exitX=1;exitY=0.5;exitDx=0;exitDy=0;entryX=0.5;entryY=0;entryDx=0;entryDy=0;" edge="1" parent="WIyWlLk6GJQsqaUBKTNV-1" source="JRrfS-yPoG9nIiZqx5cY-84" target="JRrfS-yPoG9nIiZqx5cY-5">
          <mxGeometry relative="1" as="geometry">
            <Array as="points">
              <mxPoint x="1040" y="-713" />
              <mxPoint x="1040" y="-440" />
              <mxPoint x="670" y="-440" />
            </Array>
          </mxGeometry>
        </mxCell>
        <mxCell id="JRrfS-yPoG9nIiZqx5cY-84" value="&lt;span style=&quot;font-size: 10px&quot;&gt;Return (-1)&lt;br&gt;память не выделилась&lt;br&gt;&lt;/span&gt;" style="rounded=1;whiteSpace=wrap;html=1;fontSize=12;glass=0;strokeWidth=1;shadow=0;fillColor=#D5E8D4;" parent="WIyWlLk6GJQsqaUBKTNV-1" vertex="1">
          <mxGeometry x="900" y="-733" width="120" height="40" as="geometry" />
        </mxCell>
        <mxCell id="JRrfS-yPoG9nIiZqx5cY-89" value="Нет" style="edgeStyle=orthogonalEdgeStyle;rounded=0;orthogonalLoop=1;jettySize=auto;html=1;entryX=0;entryY=0.5;entryDx=0;entryDy=0;exitX=0.5;exitY=1;exitDx=0;exitDy=0;fillColor=#D5E8D4;" parent="WIyWlLk6GJQsqaUBKTNV-1" source="JRrfS-yPoG9nIiZqx5cY-87" target="JRrfS-yPoG9nIiZqx5cY-90" edge="1">
          <mxGeometry relative="1" as="geometry">
            <mxPoint x="1070" y="-440" as="targetPoint" />
            <mxPoint x="770" y="-460" as="sourcePoint" />
          </mxGeometry>
        </mxCell>
        <mxCell id="JRrfS-yPoG9nIiZqx5cY-87" value="&lt;font style=&quot;font-size: 10px&quot;&gt;Нашли \n&lt;/font&gt;" style="rhombus;whiteSpace=wrap;html=1;rounded=1;shadow=0;strokeWidth=1;glass=0;fillColor=#D5E8D4;" parent="WIyWlLk6GJQsqaUBKTNV-1" vertex="1">
          <mxGeometry x="660" y="-643" width="80" height="80" as="geometry" />
        </mxCell>
        <mxCell id="APc1HOjJ6p6l4onspKUv-20" style="edgeStyle=orthogonalEdgeStyle;rounded=0;orthogonalLoop=1;jettySize=auto;html=1;exitX=1;exitY=0.5;exitDx=0;exitDy=0;entryX=0;entryY=0.5;entryDx=0;entryDy=0;fillColor=#D5E8D4;" edge="1" parent="WIyWlLk6GJQsqaUBKTNV-1" source="JRrfS-yPoG9nIiZqx5cY-90" target="JRrfS-yPoG9nIiZqx5cY-91">
          <mxGeometry relative="1" as="geometry" />
        </mxCell>
        <mxCell id="JRrfS-yPoG9nIiZqx5cY-90" value="&lt;span style=&quot;font-size: 10px&quot;&gt;Освободили память под buff, buff = Null&lt;br&gt;&lt;/span&gt;" style="rounded=1;whiteSpace=wrap;html=1;fontSize=12;glass=0;strokeWidth=1;shadow=0;fillColor=#D5E8D4;" parent="WIyWlLk6GJQsqaUBKTNV-1" vertex="1">
          <mxGeometry x="760" y="-550" width="120" height="40" as="geometry" />
        </mxCell>
        <mxCell id="APc1HOjJ6p6l4onspKUv-32" style="edgeStyle=orthogonalEdgeStyle;rounded=0;orthogonalLoop=1;jettySize=auto;html=1;exitX=1;exitY=0.5;exitDx=0;exitDy=0;" edge="1" parent="WIyWlLk6GJQsqaUBKTNV-1" source="JRrfS-yPoG9nIiZqx5cY-91" target="JRrfS-yPoG9nIiZqx5cY-5">
          <mxGeometry relative="1" as="geometry">
            <Array as="points">
              <mxPoint x="1040" y="-530" />
              <mxPoint x="1040" y="-440" />
              <mxPoint x="670" y="-440" />
            </Array>
          </mxGeometry>
        </mxCell>
        <mxCell id="JRrfS-yPoG9nIiZqx5cY-91" value="&lt;span style=&quot;font-size: 10px&quot;&gt;Return (0)&lt;br&gt;Строка не полная&lt;br&gt;&lt;/span&gt;" style="rounded=1;whiteSpace=wrap;html=1;fontSize=12;glass=0;strokeWidth=1;shadow=0;fillColor=#D5E8D4;" parent="WIyWlLk6GJQsqaUBKTNV-1" vertex="1">
          <mxGeometry x="900" y="-550" width="120" height="40" as="geometry" />
        </mxCell>
        <mxCell id="APc1HOjJ6p6l4onspKUv-31" style="edgeStyle=orthogonalEdgeStyle;rounded=0;orthogonalLoop=1;jettySize=auto;html=1;exitX=1;exitY=0.5;exitDx=0;exitDy=0;" edge="1" parent="WIyWlLk6GJQsqaUBKTNV-1" source="JRrfS-yPoG9nIiZqx5cY-95" target="JRrfS-yPoG9nIiZqx5cY-5">
          <mxGeometry relative="1" as="geometry">
            <Array as="points">
              <mxPoint x="1040" y="-603" />
              <mxPoint x="1040" y="-440" />
              <mxPoint x="670" y="-440" />
            </Array>
          </mxGeometry>
        </mxCell>
        <mxCell id="JRrfS-yPoG9nIiZqx5cY-95" value="&lt;span style=&quot;font-size: 10px&quot;&gt;Return (1)&lt;br&gt;Строка полная&lt;br&gt;&lt;/span&gt;" style="rounded=1;whiteSpace=wrap;html=1;fontSize=12;glass=0;strokeWidth=1;shadow=0;fillColor=#D5E8D4;" parent="WIyWlLk6GJQsqaUBKTNV-1" vertex="1">
          <mxGeometry x="900" y="-623" width="120" height="40" as="geometry" />
        </mxCell>
        <mxCell id="APc1HOjJ6p6l4onspKUv-35" value="Read coal" style="shape=document;whiteSpace=wrap;html=1;boundedLbl=1;fillColor=#D5E8D4;" vertex="1" parent="WIyWlLk6GJQsqaUBKTNV-1">
          <mxGeometry x="770" y="-815" width="75" height="50" as="geometry" />
        </mxCell>
        <mxCell id="APc1HOjJ6p6l4onspKUv-36" value="Search_start" style="shape=document;whiteSpace=wrap;html=1;boundedLbl=1;fillColor=#99CCFF;" vertex="1" parent="WIyWlLk6GJQsqaUBKTNV-1">
          <mxGeometry x="80" y="-390" width="75" height="50" as="geometry" />
        </mxCell>
        <mxCell id="APc1HOjJ6p6l4onspKUv-37" value="GNL" style="shape=document;whiteSpace=wrap;html=1;boundedLbl=1;fillColor=#FFFFCC;" vertex="1" parent="WIyWlLk6GJQsqaUBKTNV-1">
          <mxGeometry x="232.5" y="-713" width="80" height="50" as="geometry" />
        </mxCell>
      </root>
    </mxGraphModel>
  </diagram>
</mxfile>
